<svg height="599.852" viewBox="0 0 706.13 599.852" width="706.13" xmlns="http://www.w3.org/2000/svg" xmlns:xlink="http://www.w3.org/1999/xlink"><linearGradient id="a" gradientTransform="translate(0 792)" gradientUnits="userSpaceOnUse" x1="153.135" x2="153.135" y1="-600.325" y2="-280.668"><stop offset="0" stop-color="#c0ddfc"/><stop offset=".996" stop-color="#fff"/></linearGradient><linearGradient id="b" gradientTransform="matrix(-1 0 0 1 -34.834 792)" x1="-561.52" x2="-561.52" xlink:href="#a" y1="-629.47" y2="-286.895"/><linearGradient id="c" gradientTransform="matrix(-1 0 0 1 507.719 792)" gradientUnits="userSpaceOnUse" x1="-93.946" x2="-93.946" y1="-288.399" y2="-196.008"><stop offset="0" stop-color="#ffd8a1"/><stop offset=".996" stop-color="#fff"/></linearGradient><linearGradient id="d" gradientTransform="translate(0 792)" x1="103.577" x2="103.577" xlink:href="#c" y1="-317.839" y2="-197.179"/><g fill="#c4ecfe" opacity=".3"><path d="m703.836 2.294v595.264h-701.542v-595.264zm2.294-2.294h-706.13v599.852h706.13z"/><path d="m170.815 0h2.146v599.852h-2.146z"/><path d="m260.664 0h2.146v599.852h-2.146z"/><path d="m170.815 0h2.146v599.852h-2.146z"/><path d="m80.967 0h2.146v599.852h-2.146z"/><path d="m350.512 0h2.146v599.852h-2.146z"/><path d="m440.36 0h2.146v599.852h-2.146z"/><path d="m529.098 0h2.146v599.852h-2.146z"/><path d="m617.836 0h2.146v599.852h-2.146z"/></g><path d="m0 251.19v249.636a97.985 97.985 0 0 0 99.026 97.916l207.244 1.11c-51.289-29.9-43.016-132.552-78.837-160.084-35.747-27.606-19.169-133.07-74.084-149.722s-44.849-84.372-59.726-103.246l-1.11-1.333c-31.381-37.299-92.513-14.134-92.513 34.639z" fill="url(#a)"/><g fill="#bfd9ff"><circle cx="645.294" cy="133.44" r="3.034"/><circle cx="11.176" cy="467.448" r="3.034"/><circle cx="84.372" cy="51.141" r="3.034"/><circle cx="217.886" cy="193.832" r="3.034"/><circle cx="454.792" cy="33.305" r="3.034"/><circle cx="194.869" cy="444.283" r="2.812"/></g><path d="m705.612 155.939v328.383a114.491 114.491 0 0 1 -115.825 114.494l-242.028 1.036c60.023-34.933 67.29-181.991 136.785-207.894s46.479-136.253 102.656-146.244 66.461-61.5 75.194-88.146c9.248-28.05 43.218-28.642 43.218-1.629z" fill="url(#b)"/><path d="m497.2 599.852c46.182 0 67.275-67.793 121.747-61.206 16.356 2 34.562-31.529 42.037-44.11 12.36-20.945 45.146-12.508 45.146 11.693v93.623z" fill="url(#c)"/><path d="m207.08 599.852c-58.912 0-57.062-89.4-108.351-101.246-20.5-4.737-31.6-19.835-41.075-36.339-15.764-27.384-57.58-16.282-57.58 15.32v122.265z" fill="url(#d)"/></svg>