<svg xmlns="http://www.w3.org/2000/svg" width="933.333" height="933.333" preserveAspectRatio="xMidYMid meet" version="1.0" viewBox="0 0 700 700"><metadata>Created by potrace 1.14, written by Peter Selinger 2001-2017</metadata><g fill="#000" stroke="none"><path d="M2929 5536 c-2 -2 -40 -6 -84 -10 -105 -8 -172 -14 -215 -21 -19 -3 -51 -8 -70 -11 -91 -14 -165 -29 -270 -55 -25 -6 -53 -12 -62 -14 -9 -2 -77 -24 -150 -48 -195 -66 -370 -143 -427 -188 -112 -89 -178 -227 -196 -409 -4 -36 -9 -72 -10 -81 -2 -9 -6 -40 -10 -70 -3 -30 -8 -72 -11 -94 -12 -99 -14 -118 -19 -157 -3 -24 -8 -61 -11 -83 -8 -66 -15 -118 -19 -145 -2 -14 -7 -54 -10 -90 -4 -36 -8 -72 -10 -80 -2 -9 -6 -43 -10 -75 -4 -33 -9 -71 -11 -85 -2 -14 -6 -50 -10 -80 -8 -80 -13 -94 -114 -340 -74 -183 -98 -230 -123 -250 -262 -208 -548 -483 -649 -625 -113 -159 -161 -290 -138 -377 30 -111 157 -260 304 -357 65 -43 221 -124 331 -171 35 -16 198 -71 255 -87 142 -39 292 -76 355 -86 139 -24 287 -48 318 -52 20 -3 53 -7 72 -10 20 -3 79 -10 133 -15 53 -6 113 -13 132 -15 19 -2 78 -7 130 -11 52 -4 113 -8 135 -10 325 -23 1195 -23 1355 1 14 2 70 7 125 10 55 3 114 8 130 9 17 2 64 7 105 10 41 4 86 9 100 11 14 2 48 6 75 9 52 6 113 15 155 21 14 2 61 9 105 15 44 7 87 14 95 15 8 2 64 13 123 25 581 114 1039 305 1290 540 41 39 93 99 114 133 22 34 137 259 257 500 l218 437 -11 53 c-40 186 -296 336 -636 371 -28 3 -31 7 -42 67 -6 35 -14 84 -17 109 -3 25 -17 113 -31 195 -15 83 -28 161 -30 175 -3 20 -29 143 -60 280 -2 8 -8 33 -14 55 -5 22 -17 68 -25 101 -88 354 -457 625 -1135 835 -52 16 -103 31 -115 34 -12 2 -84 20 -161 39 -77 20 -156 38 -175 41 -19 3 -42 7 -50 10 -8 2 -31 6 -50 9 -33 5 -53 9 -110 21 -14 3 -43 7 -65 10 -22 2 -51 7 -65 9 -14 3 -50 8 -80 11 -30 3 -62 8 -70 10 -8 2 -49 6 -90 10 -41 3 -93 9 -115 12 -46 6 -630 14 -636 9z" transform="translate(0.000000,700.000000) scale(0.100000,-0.100000)"/></g></svg>