<svg xmlns="http://www.w3.org/2000/svg" width="64" height="64" viewBox="0 0 64 64"><linearGradient id="0~wLbGhNqlL6GItUv_9UDa" x1="32" x2="32" y1="-18.443" y2="52.399" gradientTransform="matrix(1 0 0 -1 0 66)" gradientUnits="userSpaceOnUse"><stop offset="0" stop-color="#feaa53"/><stop offset=".612" stop-color="#ffcd49"/><stop offset="1" stop-color="#ffde44"/></linearGradient><path fill="url(#0~wLbGhNqlL6GItUv_9UDa)" d="M60,25v21.08c-0.01,1.1-0.32,2.12-0.85,3c-0.35,0.59-0.8,1.11-1.33,1.54	c-0.94,0.78-2.13,1.28-3.42,1.36C54.27,52,54.14,52,54,52H10c-0.14,0-0.28,0-0.41-0.02c-1.31-0.08-2.49-0.6-3.44-1.39	c-0.51-0.42-0.96-0.94-1.3-1.52C4.32,48.2,4.01,47.17,4,46.08V25H60z"/><linearGradient id="0~wLbGhNqlL6GItUv_9UDb" x1="32" x2="32" y1="-47.931" y2="152.418" gradientTransform="matrix(1 0 0 -1 0 66)" gradientUnits="userSpaceOnUse"><stop offset="0" stop-color="#ff5840"/><stop offset=".007" stop-color="#ff5840"/><stop offset=".989" stop-color="#fa528c"/><stop offset="1" stop-color="#fa528c"/></linearGradient><rect width="56" height="14" x="4" y="25" fill="url(#0~wLbGhNqlL6GItUv_9UDb)"/><path fill="#595859" d="M60,17.92V25H4v-7.08c0.01-1.09,0.32-2.11,0.84-2.98c0.35-0.59,0.8-1.12,1.33-1.54	c0.94-0.8,2.13-1.3,3.43-1.38C9.73,12,9.86,12,10,12h44c0.14,0,0.28,0,0.41,0.02c1.32,0.08,2.51,0.6,3.46,1.4	c0.51,0.43,0.95,0.94,1.28,1.52C59.68,15.81,59.99,16.83,60,17.92z"/><linearGradient id="0~wLbGhNqlL6GItUv_9UDc" x1="13" x2="13" y1="19.787" y2="76.298" gradientTransform="matrix(1 0 0 -1 0 66)" gradientUnits="userSpaceOnUse"><stop offset="0" stop-color="#ff715c"/><stop offset=".007" stop-color="#ff715c"/><stop offset=".989" stop-color="#fb6c9d"/><stop offset="1" stop-color="#fb6c9d"/></linearGradient><path fill="url(#0~wLbGhNqlL6GItUv_9UDc)" d="M21.98,32.39c-0.2,2.08-2.06,3.61-4.15,3.61H15c-0.83,0-1.58,0.34-2.12,0.88S12,38.17,12,39H4	V28h14C20.34,28,22.21,30.01,21.98,32.39z"/><linearGradient id="0~wLbGhNqlL6GItUv_9UDd" x1="18.502" x2="18.502" y1="-15.617" y2="57.409" gradientTransform="matrix(1 0 0 -1 0 66)" gradientUnits="userSpaceOnUse"><stop offset="0" stop-color="#febb75"/><stop offset=".612" stop-color="#ffd76d"/><stop offset="1" stop-color="#ffe569"/></linearGradient><path fill="url(#0~wLbGhNqlL6GItUv_9UDd)" d="M12,39H4v7.08c0.01,1.089,0.32,2.12,0.85,2.991c0.34,0.579,0.789,1.099,1.3,1.519	c0.949,0.79,2.13,1.31,3.44,1.39C9.72,52,9.86,52,10,52h18c2.76,0,5.002-2.243,5.003-5.006c0-0.16-0.007-0.321-0.023-0.484	C32.73,43.91,30.4,42,27.79,42H15C13.34,42,12,40.66,12,39"/></svg>