<svg xmlns="http://www.w3.org/2000/svg" width="64" height="64" viewBox="0 0 64 64"><linearGradient id="whoWPx6logktP5lNKDnvxa" x1="32" x2="32" y1="-9.809" y2="2.581" gradientTransform="matrix(1 0 0 -1 0 66)" gradientUnits="userSpaceOnUse"><stop offset="0" stop-color="#ffe79f"/><stop offset=".258" stop-color="#ffe9a7"/><stop offset=".66" stop-color="#ffefbd"/><stop offset="1" stop-color="#fff5d5"/></linearGradient><path fill="url(#whoWPx6logktP5lNKDnvxa)" d="M59.65,16H4.35c0.81-2.33,3.04-4,5.65-4h44C56.61,12,58.84,13.67,59.65,16z"/><linearGradient id="whoWPx6logktP5lNKDnvxb" x1="32" x2="32" y1="-.872" y2="89.265" gradientTransform="matrix(1 0 0 -1 0 66)" gradientUnits="userSpaceOnUse"><stop offset="0" stop-color="#ff5840"/><stop offset=".007" stop-color="#ff5840"/><stop offset=".989" stop-color="#fa528c"/><stop offset="1" stop-color="#fa528c"/></linearGradient><path fill="url(#whoWPx6logktP5lNKDnvxb)" d="M60,18v2H4v-2c0-0.7,0.12-1.37,0.35-2h55.3C59.88,16.63,60,17.3,60,18z"/><linearGradient id="whoWPx6logktP5lNKDnvxc" x1="32" x2="32" y1="-9.809" y2="2.581" gradientTransform="matrix(1 0 0 -1 0 66)" gradientUnits="userSpaceOnUse"><stop offset="0" stop-color="#ffe79f"/><stop offset=".258" stop-color="#ffe9a7"/><stop offset=".66" stop-color="#ffefbd"/><stop offset="1" stop-color="#fff5d5"/></linearGradient><rect width="56" height="4" x="4" y="20" fill="url(#whoWPx6logktP5lNKDnvxc)"/><linearGradient id="whoWPx6logktP5lNKDnvxd" x1="32" x2="32" y1="-.872" y2="89.265" gradientTransform="matrix(1 0 0 -1 0 66)" gradientUnits="userSpaceOnUse"><stop offset="0" stop-color="#ff5840"/><stop offset=".007" stop-color="#ff5840"/><stop offset=".989" stop-color="#fa528c"/><stop offset="1" stop-color="#fa528c"/></linearGradient><rect width="56" height="4" x="4" y="24" fill="url(#whoWPx6logktP5lNKDnvxd)"/><linearGradient id="whoWPx6logktP5lNKDnvxe" x1="32" x2="32" y1="-9.809" y2="2.581" gradientTransform="matrix(1 0 0 -1 0 66)" gradientUnits="userSpaceOnUse"><stop offset="0" stop-color="#ffe79f"/><stop offset=".258" stop-color="#ffe9a7"/><stop offset=".66" stop-color="#ffefbd"/><stop offset="1" stop-color="#fff5d5"/></linearGradient><rect width="56" height="4" x="4" y="28" fill="url(#whoWPx6logktP5lNKDnvxe)"/><linearGradient id="whoWPx6logktP5lNKDnvxf" x1="32" x2="32" y1="-.872" y2="89.265" gradientTransform="matrix(1 0 0 -1 0 66)" gradientUnits="userSpaceOnUse"><stop offset="0" stop-color="#ff5840"/><stop offset=".007" stop-color="#ff5840"/><stop offset=".989" stop-color="#fa528c"/><stop offset="1" stop-color="#fa528c"/></linearGradient><rect width="56" height="4" x="4" y="32" fill="url(#whoWPx6logktP5lNKDnvxf)"/><linearGradient id="whoWPx6logktP5lNKDnvxg" x1="32" x2="32" y1="-9.809" y2="2.581" gradientTransform="matrix(1 0 0 -1 0 66)" gradientUnits="userSpaceOnUse"><stop offset="0" stop-color="#ffe79f"/><stop offset=".258" stop-color="#ffe9a7"/><stop offset=".66" stop-color="#ffefbd"/><stop offset="1" stop-color="#fff5d5"/></linearGradient><rect width="56" height="4" x="4" y="36" fill="url(#whoWPx6logktP5lNKDnvxg)"/><linearGradient id="whoWPx6logktP5lNKDnvxh" x1="32" x2="32" y1="-.872" y2="89.265" gradientTransform="matrix(1 0 0 -1 0 66)" gradientUnits="userSpaceOnUse"><stop offset="0" stop-color="#ff5840"/><stop offset=".007" stop-color="#ff5840"/><stop offset=".989" stop-color="#fa528c"/><stop offset="1" stop-color="#fa528c"/></linearGradient><rect width="56" height="4" x="4" y="40" fill="url(#whoWPx6logktP5lNKDnvxh)"/><linearGradient id="whoWPx6logktP5lNKDnvxi" x1="32" x2="32" y1="-8.872" y2="81.265" gradientTransform="matrix(1 0 0 -1 0 66)" gradientUnits="userSpaceOnUse"><stop offset="0" stop-color="#ff5840"/><stop offset=".007" stop-color="#ff5840"/><stop offset=".989" stop-color="#fa528c"/><stop offset="1" stop-color="#fa528c"/></linearGradient><path fill="url(#whoWPx6logktP5lNKDnvxi)" d="M59.65,48c-0.81,2.33-3.04,4-5.65,4H10c-2.61,0-4.84-1.67-5.65-4H59.65z"/><linearGradient id="whoWPx6logktP5lNKDnvxj" x1="32" x2="32" y1="-9.809" y2="2.581" gradientTransform="matrix(1 0 0 -1 0 66)" gradientUnits="userSpaceOnUse"><stop offset="0" stop-color="#ffe79f"/><stop offset=".258" stop-color="#ffe9a7"/><stop offset=".66" stop-color="#ffefbd"/><stop offset="1" stop-color="#fff5d5"/></linearGradient><path fill="url(#whoWPx6logktP5lNKDnvxj)" d="M60,44v2c0,0.7-0.12,1.37-0.35,2H4.35C4.12,47.37,4,46.7,4,46v-2H60z"/><linearGradient id="whoWPx6logktP5lNKDnvxk" x1="18.5" x2="18.5" y1="11.638" y2="71.557" gradientTransform="matrix(1 0 0 -1 0 66)" gradientUnits="userSpaceOnUse"><stop offset="0" stop-color="#155cde"/><stop offset=".278" stop-color="#1f7fe5"/><stop offset=".569" stop-color="#279ceb"/><stop offset=".82" stop-color="#2cafef"/><stop offset="1" stop-color="#2eb5f0"/></linearGradient><path fill="url(#whoWPx6logktP5lNKDnvxk)" d="M33,12v18c0,3.314-2.686,6-6,6H4V18c0-0.7,0.12-1.37,0.35-2c0.81-2.33,3.04-4,5.65-4H33z"/><linearGradient id="whoWPx6logktP5lNKDnvxl" x1="10.501" x2="10.501" y1="-9.809" y2="2.581" gradientTransform="matrix(1 0 0 -1 0 66)" gradientUnits="userSpaceOnUse"><stop offset="0" stop-color="#ffe79f"/><stop offset=".258" stop-color="#ffe9a7"/><stop offset=".66" stop-color="#ffefbd"/><stop offset="1" stop-color="#fff5d5"/></linearGradient><path fill="url(#whoWPx6logktP5lNKDnvxl)" d="M10.734,15.178l0.422,1.358c0.033,0.106,0.127,0.178,0.234,0.178h1.364	c0.238,0,0.337,0.319,0.144,0.465l-1.104,0.839c-0.086,0.065-0.122,0.182-0.089,0.288l0.422,1.358	c0.074,0.237-0.186,0.434-0.378,0.288l-1.104-0.839c-0.086-0.065-0.203-0.065-0.289,0L9.252,19.95	c-0.193,0.146-0.452-0.051-0.378-0.288l0.422-1.358c0.033-0.106-0.003-0.222-0.089-0.288l-1.104-0.839	c-0.193-0.146-0.094-0.465,0.144-0.465h1.364c0.107,0,0.201-0.072,0.234-0.178l0.422-1.358C10.34,14.941,10.66,14.941,10.734,15.178	z"/><linearGradient id="whoWPx6logktP5lNKDnvxm" x1="18.5" x2="18.5" y1="-9.809" y2="2.581" gradientTransform="matrix(1 0 0 -1 0 66)" gradientUnits="userSpaceOnUse"><stop offset="0" stop-color="#ffe79f"/><stop offset=".258" stop-color="#ffe9a7"/><stop offset=".66" stop-color="#ffefbd"/><stop offset="1" stop-color="#fff5d5"/></linearGradient><path fill="url(#whoWPx6logktP5lNKDnvxm)" d="M18.734,15.178l0.422,1.358c0.033,0.106,0.127,0.178,0.234,0.178h1.364	c0.238,0,0.337,0.319,0.144,0.465l-1.104,0.839c-0.086,0.065-0.122,0.182-0.089,0.288l0.422,1.358	c0.074,0.237-0.186,0.434-0.378,0.288l-1.104-0.839c-0.086-0.065-0.203-0.065-0.289,0l-1.104,0.839	c-0.193,0.146-0.452-0.051-0.378-0.288l0.422-1.358c0.033-0.106-0.003-0.222-0.089-0.288l-1.104-0.839	c-0.193-0.146-0.094-0.465,0.144-0.465h1.364c0.107,0,0.201-0.072,0.234-0.178l0.422-1.358C18.34,14.941,18.66,14.941,18.734,15.178	z"/><linearGradient id="whoWPx6logktP5lNKDnvxn" x1="26.5" x2="26.5" y1="-9.809" y2="2.581" gradientTransform="matrix(1 0 0 -1 0 66)" gradientUnits="userSpaceOnUse"><stop offset="0" stop-color="#ffe79f"/><stop offset=".258" stop-color="#ffe9a7"/><stop offset=".66" stop-color="#ffefbd"/><stop offset="1" stop-color="#fff5d5"/></linearGradient><path fill="url(#whoWPx6logktP5lNKDnvxn)" d="M26.734,15.178l0.422,1.358c0.033,0.106,0.127,0.178,0.234,0.178h1.364	c0.238,0,0.337,0.319,0.144,0.465l-1.104,0.839c-0.086,0.065-0.122,0.182-0.089,0.288l0.422,1.358	c0.074,0.237-0.186,0.434-0.378,0.288l-1.104-0.839c-0.086-0.065-0.203-0.065-0.289,0l-1.104,0.839	c-0.193,0.146-0.452-0.051-0.378-0.288l0.422-1.358c0.033-0.106-0.003-0.222-0.089-0.288l-1.104-0.839	c-0.193-0.146-0.094-0.465,0.144-0.465h1.364c0.107,0,0.201-0.072,0.234-0.178l0.422-1.358C26.34,14.941,26.66,14.941,26.734,15.178	z"/><linearGradient id="whoWPx6logktP5lNKDnvxo" x1="10.501" x2="10.501" y1="-9.809" y2="2.581" gradientTransform="matrix(1 0 0 -1 0 66)" gradientUnits="userSpaceOnUse"><stop offset="0" stop-color="#ffe79f"/><stop offset=".258" stop-color="#ffe9a7"/><stop offset=".66" stop-color="#ffefbd"/><stop offset="1" stop-color="#fff5d5"/></linearGradient><path fill="url(#whoWPx6logktP5lNKDnvxo)" d="M10.734,28.178l0.422,1.358c0.033,0.106,0.127,0.178,0.234,0.178h1.364	c0.238,0,0.337,0.319,0.144,0.465l-1.104,0.839c-0.086,0.065-0.122,0.182-0.089,0.288l0.422,1.358	c0.074,0.237-0.186,0.434-0.378,0.288l-1.104-0.839c-0.086-0.065-0.203-0.065-0.289,0L9.252,32.95	c-0.193,0.146-0.452-0.051-0.378-0.288l0.422-1.358c0.033-0.106-0.003-0.222-0.089-0.288l-1.104-0.839	c-0.193-0.146-0.094-0.465,0.144-0.465h1.364c0.107,0,0.201-0.072,0.234-0.178l0.422-1.358C10.34,27.941,10.66,27.941,10.734,28.178	z"/><linearGradient id="whoWPx6logktP5lNKDnvxp" x1="14.501" x2="14.501" y1="-9.809" y2="2.581" gradientTransform="matrix(1 0 0 -1 0 66)" gradientUnits="userSpaceOnUse"><stop offset="0" stop-color="#ffe79f"/><stop offset=".258" stop-color="#ffe9a7"/><stop offset=".66" stop-color="#ffefbd"/><stop offset="1" stop-color="#fff5d5"/></linearGradient><path fill="url(#whoWPx6logktP5lNKDnvxp)" d="M14.734,21.178l0.422,1.358c0.033,0.106,0.127,0.178,0.234,0.178h1.364	c0.238,0,0.337,0.319,0.144,0.465l-1.104,0.839c-0.086,0.065-0.122,0.182-0.089,0.288l0.422,1.358	c0.074,0.237-0.186,0.434-0.378,0.288l-1.104-0.839c-0.086-0.065-0.203-0.065-0.289,0l-1.104,0.839	c-0.193,0.146-0.452-0.051-0.378-0.288l0.422-1.358c0.033-0.106-0.003-0.222-0.089-0.288l-1.104-0.839	c-0.193-0.146-0.094-0.465,0.144-0.465h1.364c0.107,0,0.201-0.072,0.234-0.178l0.422-1.358C14.34,20.941,14.66,20.941,14.734,21.178	z"/><linearGradient id="whoWPx6logktP5lNKDnvxq" x1="22.5" x2="22.5" y1="-9.809" y2="2.581" gradientTransform="matrix(1 0 0 -1 0 66)" gradientUnits="userSpaceOnUse"><stop offset="0" stop-color="#ffe79f"/><stop offset=".258" stop-color="#ffe9a7"/><stop offset=".66" stop-color="#ffefbd"/><stop offset="1" stop-color="#fff5d5"/></linearGradient><path fill="url(#whoWPx6logktP5lNKDnvxq)" d="M22.734,21.178l0.422,1.358c0.033,0.106,0.127,0.178,0.234,0.178h1.364	c0.238,0,0.337,0.319,0.144,0.465l-1.104,0.839c-0.086,0.065-0.122,0.182-0.089,0.288l0.422,1.358	c0.074,0.237-0.186,0.434-0.378,0.288l-1.104-0.839c-0.086-0.065-0.203-0.065-0.289,0l-1.104,0.839	c-0.193,0.146-0.452-0.051-0.378-0.288l0.422-1.358c0.033-0.106-0.003-0.222-0.089-0.288l-1.104-0.839	c-0.193-0.146-0.094-0.465,0.144-0.465h1.364c0.107,0,0.201-0.072,0.234-0.178l0.422-1.358C22.34,20.941,22.66,20.941,22.734,21.178	z"/><linearGradient id="whoWPx6logktP5lNKDnvxr" x1="18.5" x2="18.5" y1="-9.809" y2="2.581" gradientTransform="matrix(1 0 0 -1 0 66)" gradientUnits="userSpaceOnUse"><stop offset="0" stop-color="#ffe79f"/><stop offset=".258" stop-color="#ffe9a7"/><stop offset=".66" stop-color="#ffefbd"/><stop offset="1" stop-color="#fff5d5"/></linearGradient><path fill="url(#whoWPx6logktP5lNKDnvxr)" d="M18.734,28.178l0.422,1.358c0.033,0.106,0.127,0.178,0.234,0.178h1.364	c0.238,0,0.337,0.319,0.144,0.465l-1.104,0.839c-0.086,0.065-0.122,0.182-0.089,0.288l0.422,1.358	c0.074,0.237-0.186,0.434-0.378,0.288l-1.104-0.839c-0.086-0.065-0.203-0.065-0.289,0l-1.104,0.839	c-0.193,0.146-0.452-0.051-0.378-0.288l0.422-1.358c0.033-0.106-0.003-0.222-0.089-0.288l-1.104-0.839	c-0.193-0.146-0.094-0.465,0.144-0.465h1.364c0.107,0,0.201-0.072,0.234-0.178l0.422-1.358C18.34,27.941,18.66,27.941,18.734,28.178	z"/><linearGradient id="whoWPx6logktP5lNKDnvxs" x1="26.5" x2="26.5" y1="-9.809" y2="2.581" gradientTransform="matrix(1 0 0 -1 0 66)" gradientUnits="userSpaceOnUse"><stop offset="0" stop-color="#ffe79f"/><stop offset=".258" stop-color="#ffe9a7"/><stop offset=".66" stop-color="#ffefbd"/><stop offset="1" stop-color="#fff5d5"/></linearGradient><path fill="url(#whoWPx6logktP5lNKDnvxs)" d="M26.734,28.178l0.422,1.358c0.033,0.106,0.127,0.178,0.234,0.178h1.364	c0.238,0,0.337,0.319,0.144,0.465l-1.104,0.839c-0.086,0.065-0.122,0.182-0.089,0.288l0.422,1.358	c0.074,0.237-0.186,0.434-0.378,0.288l-1.104-0.839c-0.086-0.065-0.203-0.065-0.289,0l-1.104,0.839	c-0.193,0.146-0.452-0.051-0.378-0.288l0.422-1.358c0.033-0.106-0.003-0.222-0.089-0.288l-1.104-0.839	c-0.193-0.146-0.094-0.465,0.144-0.465h1.364c0.107,0,0.201-0.072,0.234-0.178l0.422-1.358C26.34,27.941,26.66,27.941,26.734,28.178	z"/><linearGradient id="whoWPx6logktP5lNKDnvxt" x1="16.498" x2="16.498" y1="14.511" y2="19.17" gradientTransform="matrix(1 0 0 -1 0 66)" gradientUnits="userSpaceOnUse"><stop offset="0" stop-color="#fff2cd"/><stop offset=".258" stop-color="#fff4d1"/><stop offset=".66" stop-color="#fff7dd"/><stop offset="1" stop-color="#fffae9"/></linearGradient><path fill="url(#whoWPx6logktP5lNKDnvxt)" d="M25.85,36H4v4h24.82c0.116-0.313,0.179-0.656,0.177-1.01c-0.001-0.099-0.006-0.199-0.017-0.3	C28.83,37.13,27.41,36,25.85,36"/><linearGradient id="whoWPx6logktP5lNKDnvxu" x1="16.41" x2="16.41" y1="14.021" y2="52.758" gradientTransform="matrix(1 0 0 -1 0 66)" gradientUnits="userSpaceOnUse"><stop offset="0" stop-color="#ff715c"/><stop offset=".007" stop-color="#ff715c"/><stop offset=".989" stop-color="#fb6c9d"/><stop offset="1" stop-color="#fb6c9d"/></linearGradient><path fill="url(#whoWPx6logktP5lNKDnvxu)" d="M28.82,40c-0.4,1.17-1.51,2-2.82,2h-2c-1.1,0-2,0.9-2,2H4v-4H28.82z"/><linearGradient id="whoWPx6logktP5lNKDnvxv" x1="20.91" x2="20.91" y1="9.468" y2="13.425" gradientTransform="matrix(1 0 0 -1 0 66)" gradientUnits="userSpaceOnUse"><stop offset="0" stop-color="#fff2cd"/><stop offset=".258" stop-color="#fff4d1"/><stop offset=".66" stop-color="#fff7dd"/><stop offset="1" stop-color="#fffae9"/></linearGradient><path fill="url(#whoWPx6logktP5lNKDnvxv)" d="M37.82,48H4.35C4.12,47.37,4,46.7,4,46v-2h18c0,0.55,0.22,1.05,0.59,1.41	C22.95,45.78,23.45,46,24,46h11C36.31,46,37.42,46.83,37.82,48z"/><linearGradient id="whoWPx6logktP5lNKDnvxw" x1="21.174" x2="21.174" y1="14.021" y2="51.555" gradientTransform="matrix(1 0 0 -1 0 66)" gradientUnits="userSpaceOnUse"><stop offset="0" stop-color="#ff715c"/><stop offset=".007" stop-color="#ff715c"/><stop offset=".989" stop-color="#fb6c9d"/><stop offset="1" stop-color="#fb6c9d"/></linearGradient><path fill="url(#whoWPx6logktP5lNKDnvxw)" d="M37.98,49.31C37.83,50.87,36.41,52,34.85,52H10c-2.61,0-4.84-1.67-5.65-4h33.47	C37.97,48.4,38.03,48.85,37.98,49.31z"/></svg>