<svg xmlns="http://www.w3.org/2000/svg"  viewBox="0 0 64 64" width="64px" height="64px"><linearGradient id="hKINeaWO15VNLmwZYW7pBa" x1="32.014" x2="32.014" y1="-34.436" y2="70.516" gradientTransform="matrix(1 .00079 .00079 -1 -.04 65.603)" gradientUnits="userSpaceOnUse"><stop offset="0" stop-color="#feaa53"/><stop offset=".612" stop-color="#ffcd49"/><stop offset="1" stop-color="#ffde44"/></linearGradient><path fill="url(#hKINeaWO15VNLmwZYW7pBa)" d="M60.011,17.942l-0.022,28.16c-0.011,1.1-0.322,2.12-0.852,2.999	c-0.351,0.59-0.801,1.109-1.331,1.539c-0.941,0.779-2.131,1.278-3.421,1.357c-0.13,0.02-0.26,0.02-0.4,0.02l-44-0.035	c-0.14,0-0.28,0-0.41-0.02c-1.31-0.081-2.49-0.602-3.439-1.393c-0.51-0.42-0.959-0.941-1.299-1.521	c-0.529-0.871-0.838-1.901-0.848-2.991l0.022-28.16c0.011-1.09,0.322-2.11,0.842-2.979c0.35-0.59,0.801-1.119,1.331-1.539	c0.941-0.799,2.131-1.298,3.431-1.377c0.13-0.02,0.26-0.02,0.4-0.02l44,0.035c0.14,0,0.28,0,0.41,0.02	c1.32,0.081,2.51,0.602,3.459,1.403c0.51,0.431,0.949,0.941,1.279,1.521C59.693,15.832,60.002,16.852,60.011,17.942z"/><linearGradient id="hKINeaWO15VNLmwZYW7pBb" x1="32.014" x2="32.014" y1="-3.542" y2="125.254" gradientTransform="matrix(1 .00079 .00079 -1 -.04 65.603)" gradientUnits="userSpaceOnUse"><stop offset="0" stop-color="#ff5840"/><stop offset=".007" stop-color="#ff5840"/><stop offset=".989" stop-color="#fa528c"/><stop offset="1" stop-color="#fa528c"/></linearGradient><path fill="url(#hKINeaWO15VNLmwZYW7pBb)" d="M60.011,17.942l-0.002,3.08l-56-0.044l0.002-3.08c0.011-1.09,0.322-2.11,0.842-2.979	c0.35-0.59,0.801-1.119,1.331-1.539c0.941-0.799,2.131-1.298,3.431-1.377c0.13-0.02,0.26-0.02,0.4-0.02l44,0.035	c0.14,0,0.28,0,0.41,0.02c1.32,0.081,2.51,0.602,3.459,1.403c0.51,0.431,0.949,0.941,1.279,1.521	C59.693,15.832,60.002,16.852,60.011,17.942z"/><linearGradient id="hKINeaWO15VNLmwZYW7pBc" x1="31.992" x2="31.992" y1="-3.267" y2="126.102" gradientTransform="matrix(1 0 0 -1 0 66)" gradientUnits="userSpaceOnUse"><stop offset="0" stop-color="#ff5840"/><stop offset=".007" stop-color="#ff5840"/><stop offset=".989" stop-color="#fa528c"/><stop offset="1" stop-color="#fa528c"/></linearGradient><path fill="url(#hKINeaWO15VNLmwZYW7pBc)" d="M59.99,43.02v3.08c0.01,0.14,0,0.28-0.02,0.41c-0.01,0.1-0.02,0.2-0.03,0.3	c-0.1,0.77-0.35,1.5-0.72,2.15c-0.03,0.05-0.05,0.09-0.08,0.14c-0.05,0.09-0.11,0.18-0.17,0.26c-0.1,0.14-0.2,0.29-0.32,0.43	c-0.01,0.01-0.02,0.03-0.03,0.05c-0.13,0.14-0.25,0.27-0.38,0.4c-0.14,0.14-0.28,0.27-0.42,0.39c-0.01,0-0.01,0-0.01,0.01	c-0.15,0.12-0.3,0.23-0.45,0.33c-0.19,0.13-0.38,0.24-0.58,0.35c-0.12,0.06-0.24,0.12-0.36,0.17c-0.21,0.09-0.42,0.17-0.63,0.24	c-0.19,0.06-0.38,0.11-0.58,0.15c-0.27,0.07-0.55,0.1-0.83,0.12c-0.13,0.02-0.26,0.02-0.4,0.02l-44-0.04c-0.14,0-0.28,0-0.41-0.02	c-1.31-0.08-2.49-0.6-3.43-1.39c-0.51-0.42-0.96-0.94-1.3-1.52c-0.53-0.87-0.84-1.9-0.85-2.99v-3.08L53,43.02H59.99z"/><linearGradient id="hKINeaWO15VNLmwZYW7pBd" x1="18.014" x2="18.014" y1="-17.329" y2="111.352" gradientTransform="matrix(1 .00079 .00079 -1 -.04 65.603)" gradientUnits="userSpaceOnUse"><stop offset="0" stop-color="#ff5840"/><stop offset=".007" stop-color="#ff5840"/><stop offset=".989" stop-color="#fa528c"/><stop offset="1" stop-color="#fa528c"/></linearGradient><circle cx="18.006" cy="24.489" r="1.5" fill="url(#hKINeaWO15VNLmwZYW7pBd)"/><linearGradient id="hKINeaWO15VNLmwZYW7pBe" x1="18.014" x2="18.014" y1="-21.688" y2="116.841" gradientTransform="matrix(1 .00079 .00079 -1 -.04 65.603)" gradientUnits="userSpaceOnUse"><stop offset="0" stop-color="#ff5840"/><stop offset=".007" stop-color="#ff5840"/><stop offset=".989" stop-color="#fa528c"/><stop offset="1" stop-color="#fa528c"/></linearGradient><path fill="url(#hKINeaWO15VNLmwZYW7pBe)" d="M25.04,26.994h-0.073c-0.532,0-0.964,0.431-0.964,0.963l-0.002,3.13	c-0.707,0.124-1.385,0.38-2.001,0.747l0.001-0.842c0-0.552-0.447-1-0.999-1.001l-1-0.001l1.708-1.706	c0.188-0.187,0.293-0.442,0.293-0.707v-0.586c0-0.552-0.447-1-0.999-1.001l-3-0.002l-3-0.002c-0.552,0-1,0.447-1.001,0.999v0.586	c0,0.265,0.105,0.52,0.292,0.707l1.706,1.708l-1-0.001c-0.552,0-1,0.447-1.001,0.999l0,0.844c-0.615-0.369-1.293-0.625-1.999-0.751	l0.002-3.13c0-0.532-0.431-0.964-0.963-0.964h-0.073c-0.532,0-0.964,0.431-0.964,0.963L9.993,40.09c0,0.532,0.431,0.964,0.963,0.964	h0.073c0.532,0,0.964-0.43,0.964-0.963l0.005-6.956c0.638,0.175,1.235,0.498,1.706,0.971l0.293,0.293l-0.002,2.586	c-0.002,2.209,1.788,4.001,3.997,4.003l0,0c2.209,0.002,4.001-1.788,4.003-3.997l0.002-2.586l0.293-0.293	c0.472-0.472,1.069-0.794,1.708-0.968L23.993,40.1c0,0.532,0.431,0.964,0.963,0.964h0.073c0.532,0,0.964-0.43,0.964-0.963	l0.01-12.144C26.004,27.427,25.572,26.995,25.04,26.994z"/><linearGradient id="hKINeaWO15VNLmwZYW7pBf" x1="52.5" x2="52.5" y1="15.043" y2="44.759" gradientTransform="matrix(1 0 0 -1 0 66)" gradientUnits="userSpaceOnUse"><stop offset="0" stop-color="#febb75"/><stop offset=".612" stop-color="#ffd76d"/><stop offset="1" stop-color="#ffe569"/></linearGradient><path fill="url(#hKINeaWO15VNLmwZYW7pBf)" d="M60,34l-0.01,9.02H53c0-0.01,0-0.01,0-0.02c0-1.66-1.34-3-3-3h-2c-1.66,0-3.01-1.36-3-3.02	c0-0.18,0.02-0.38,0.06-0.57c0.27-1.43,1.6-2.41,3.05-2.41H60z"/><linearGradient id="hKINeaWO15VNLmwZYW7pBg" x1="48.995" x2="48.995" y1="13.841" y2="39.905" gradientTransform="matrix(1 0 0 -1 0 66)" gradientUnits="userSpaceOnUse"><stop offset="0" stop-color="#ff6953"/><stop offset=".007" stop-color="#ff6953"/><stop offset=".989" stop-color="#fb6498"/><stop offset="1" stop-color="#fb6498"/></linearGradient><path fill="url(#hKINeaWO15VNLmwZYW7pBg)" d="M59.99,43.02c0,0,0,3.36-0.02,3.49c-0.01,0.1-0.02,0.2-0.03,0.3c-0.1,0.77-0.35,1.5-0.72,2.15	c-0.08,0.14-0.16,0.27-0.25,0.4c-0.1,0.14-0.2,0.29-0.32,0.43c-0.01,0.01-0.02,0.03-0.03,0.05c-0.13,0.14-0.25,0.27-0.38,0.4	c-0.14,0.14-0.28,0.27-0.42,0.39c-0.01,0-0.01,0-0.01,0.01c-0.15,0.12-0.3,0.23-0.45,0.33c-0.19,0.13-0.38,0.24-0.58,0.35	c-0.12,0.06-0.24,0.12-0.36,0.17c-0.21,0.09-0.42,0.17-0.63,0.24c-0.19,0.06-0.38,0.11-0.58,0.15C54.82,51.96,54.42,52,54,52H41	c-1.66,0-3-1.34-3-3s1.34-3,3-3h9c0.83,0,1.58-0.34,2.12-0.88c0.54-0.54,0.87-1.28,0.88-2.1H59.99z"/><linearGradient id="hKINeaWO15VNLmwZYW7pBh" x1="38.001" x2="38.001" y1="15.043" y2="44.759" gradientTransform="matrix(1 0 0 -1 0 66)" gradientUnits="userSpaceOnUse"><stop offset="0" stop-color="#febb75"/><stop offset=".612" stop-color="#ffd76d"/><stop offset="1" stop-color="#ffe569"/></linearGradient><path fill="url(#hKINeaWO15VNLmwZYW7pBh)" d="M38,34c-1.657,0-3,1.343-3,3s1.343,3,3.001,3c1.657,0,3-1.342,3-3C41,35.343,39.658,34,38,34"/></svg>