<svg xmlns="http://www.w3.org/2000/svg"  viewBox="0 0 64 64" width="64px" height="64px"><rect width="60" height="40" x="3" y="13" fill="#ed7899" rx="2" ry="2"/><path fill="#85cbf8" d="M5,13H23a0,0,0,0,1,0,0V53a0,0,0,0,1,0,0H5a2,2,0,0,1-2-2V15A2,2,0,0,1,5,13Z"/><path fill="#faefde" d="M23 13H43V53H23z"/><path fill="#6fc6f0" d="M5,13H8a0,0,0,0,1,0,0V53a0,0,0,0,1,0,0H5a2,2,0,0,1-2-2V15A2,2,0,0,1,5,13Z"/><path fill="#f283a5" d="M60,13h3a0,0,0,0,1,0,0V53a0,0,0,0,1,0,0H60a2,2,0,0,1-2-2V15A2,2,0,0,1,60,13Z" transform="rotate(180 60.5 33)"/><path fill="#8d6c9f" d="M61,12H5a3,3,0,0,0-3,3V51a3,3,0,0,0,3,3H61a3,3,0,0,0,3-3V15A3,3,0,0,0,61,12ZM4,51V15a1,1,0,0,1,1-1H22V52H5A1,1,0,0,1,4,51Zm58,0a1,1,0,0,1-1,1H24V14H42V41a1,1,0,0,0,2,0V14H61a1,1,0,0,1,1,1Z"/><path fill="#8d6c9f" d="M9 37H7a1 1 0 0 0 0 2H9a1 1 0 0 0 0-2zM9 42H7a1 1 0 0 0 0 2H9a1 1 0 0 0 0-2zM9 47H7a1 1 0 0 0 0 2H9a1 1 0 0 0 0-2zM9 22H7a1 1 0 0 0 0 2H9a1 1 0 0 0 0-2zM7 19H9a1 1 0 0 0 0-2H7a1 1 0 0 0 0 2zM9 32H7a1 1 0 0 0 0 2H9a1 1 0 0 0 0-2zM9 27H7a1 1 0 0 0 0 2H9a1 1 0 0 0 0-2zM43 44a1 1 0 0 0-1 1v4a1 1 0 0 0 2 0V45A1 1 0 0 0 43 44z"/></svg>