<svg xmlns="http://www.w3.org/2000/svg"  viewBox="0 0 30 30" width="40px" height="40px"><path fill="#f2faff" d="M0.5 4.5H29.5V25.5H0.5z"/><path fill="#a3b7cc" d="M29,5v20H1V5H29 M30,4H0v22h30V4L30,4z"/><path fill="#4b6477" d="M23 7.4H23.7V12.5H23z" transform="rotate(-31.902 23.391 9.992)"/><path fill="#4b6477" d="M22.8 10.7H23.5V13H22.8z" transform="rotate(-31.734 23.156 11.818)"/><path fill="#4b6477" d="M24.7 9.3H25.4V11.600000000000001H24.7z" transform="rotate(-32.038 25.073 10.515)"/><path fill="#4b6477" d="M21.3 8.3H22V10.600000000000001H21.3z" transform="rotate(-32.038 21.71 9.484)"/><path fill="#4b6477" d="M23.9 9.4L22.7 7.4 23.3 7 24.5 9zM24.8 20.7L24.1 20.3 25.4 18.3 26 18.7zM22.9 19.4L22.2 19 23.5 17 24.1 17.4zM23.8 20L23.2 19.6 24.4 17.6 25 18zM23.3 23L22.7 22.6 23.9 20.6 24.5 21zM21.4 21.7L20.8 21.3 22 19.3 22.6 19.7z"/><path fill="#4b6477" d="M21.5 20.8H23.8V21.5H21.5z" transform="rotate(-58.419 22.68 21.166)"/><path fill="#4b6477" d="M5 10.3H10.1V11H5z" transform="rotate(-58.298 7.562 10.648)"/><path fill="#4b6477" d="M4.1 9.6H9.2V10.299999999999999H4.1z" transform="rotate(-58.298 6.61 10)"/><path fill="#4b6477" d="M3.1 9H8.2V9.7H3.1z" transform="rotate(-58.089 5.65 9.352)"/><path fill="#4b6477" d="M5.3 18.1H6V23.200000000000003H5.3z" transform="rotate(-31.748 5.645 20.649)"/><path fill="#4b6477" d="M7 20H7.7V22.3H7z" transform="rotate(-31.864 7.314 21.164)"/><path fill="#4b6477" d="M5.5 17.7H6.2V20H5.5z" transform="rotate(-31.548 5.87 18.836)"/><path fill="#4b6477" d="M7.2 16.8H7.9V21.9H7.2z" transform="rotate(-31.745 7.548 19.35)"/><path fill="#f78f8f" d="M12.5,17.5c1.4,0,2.5-1.1,2.5-2.5s1.1-2.5,2.5-2.5S20,13.6,20,15c0-2.8-2.2-5-5-5s-5,2.2-5,5 C10,16.4,11.1,17.5,12.5,17.5z"/><path fill="#8bb7f0" d="M17.5,12.5c-1.4,0-2.5,1.1-2.5,2.5s-1.1,2.5-2.5,2.5S10,16.4,10,15c0,2.8,2.2,5,5,5s5-2.2,5-5 C20,13.6,18.9,12.5,17.5,12.5z"/><path fill="#4e7ab5" d="M12.3,18C10.5,18,9,16.7,9,15h1c0,1.1,1,2,2.3,2s2.3-0.9,2.3-2c0-1.7,1.5-3,3.3-3s3.3,1.3,3.3,3h-1 c0-1.1-1-2-2.3-2s-2.3,0.9-2.3,2C15.5,16.7,14,18,12.3,18z"/><path fill="#4e7ab5" d="M15,21c-3.3,0-6-2.7-6-6s2.7-6,6-6s6,2.7,6,6S18.3,21,15,21z M15,10c-2.8,0-5,2.2-5,5s2.2,5,5,5 s5-2.2,5-5S17.8,10,15,10z"/></svg>