<svg xmlns="http://www.w3.org/2000/svg" width="64" height="64" viewBox="0 0 64 64"><linearGradient id="i_ktCIYOpG~hdy9i2EhDna" x1="32" x2="32" y1="-78.766" y2="9.354" gradientTransform="matrix(1 0 0 -1 0 66)" gradientUnits="userSpaceOnUse"><stop offset="0" stop-color="#155cde"/><stop offset=".278" stop-color="#1f7fe5"/><stop offset=".569" stop-color="#279ceb"/><stop offset=".82" stop-color="#2cafef"/><stop offset="1" stop-color="#2eb5f0"/></linearGradient><rect width="56" height="16" x="4" y="24" fill="url(#i_ktCIYOpG~hdy9i2EhDna)"/><linearGradient id="i_ktCIYOpG~hdy9i2EhDnb" x1="32" x2="32" y1="4.452" y2="76.05" gradientTransform="matrix(1 0 0 -1 0 66)" gradientUnits="userSpaceOnUse"><stop offset="0" stop-color="#ff5840"/><stop offset=".007" stop-color="#ff5840"/><stop offset=".989" stop-color="#fa528c"/><stop offset="1" stop-color="#fa528c"/></linearGradient><path fill="url(#i_ktCIYOpG~hdy9i2EhDnb)" d="M60,39v7c0,0.7-0.12,1.37-0.35,2c-0.81,2.33-3.04,4-5.65,4H10c-2.61,0-4.84-1.67-5.65-4	C4.12,47.37,4,46.7,4,46v-7H60z"/><linearGradient id="i_ktCIYOpG~hdy9i2EhDnc" x1="32" x2="32" y1="-22.404" y2="-7.571" gradientTransform="matrix(1 0 0 -1 0 66)" gradientUnits="userSpaceOnUse"><stop offset="0" stop-color="#ffe79f"/><stop offset=".258" stop-color="#ffe9a7"/><stop offset=".66" stop-color="#ffefbd"/><stop offset="1" stop-color="#fff5d5"/></linearGradient><path fill="url(#i_ktCIYOpG~hdy9i2EhDnc)" d="M60,18v7H4v-7c0-0.7,0.12-1.37,0.35-2c0.81-2.33,3.04-4,5.65-4h44c2.61,0,4.84,1.67,5.65,4	C59.88,16.63,60,17.3,60,18z"/><linearGradient id="i_ktCIYOpG~hdy9i2EhDnd" x1="13" x2="13" y1="21.723" y2="89.255" gradientTransform="matrix(1 0 0 -1 0 66)" gradientUnits="userSpaceOnUse"><stop offset="0" stop-color="#41bfec"/><stop offset=".232" stop-color="#4cc5ef"/><stop offset=".644" stop-color="#6bd4f6"/><stop offset="1" stop-color="#8ae4fd"/></linearGradient><path fill="url(#i_ktCIYOpG~hdy9i2EhDnd)" d="M21.98,32.39c-0.2,2.08-2.06,3.61-4.15,3.61H15c-0.83,0-1.58,0.34-2.12,0.88S12,38.17,12,39H4	V28h14C20.34,28,22.21,30.01,21.98,32.39z"/><linearGradient id="i_ktCIYOpG~hdy9i2EhDne" x1="18.502" x2="18.502" y1="13.681" y2="85.71" gradientTransform="matrix(1 0 0 -1 0 66)" gradientUnits="userSpaceOnUse"><stop offset="0" stop-color="#ff715c"/><stop offset=".007" stop-color="#ff715c"/><stop offset=".989" stop-color="#fb6c9d"/><stop offset="1" stop-color="#fb6c9d"/></linearGradient><path fill="url(#i_ktCIYOpG~hdy9i2EhDne)" d="M12,39H4v7.08c0.01,1.089,0.32,2.12,0.85,2.991c0.34,0.579,0.789,1.099,1.3,1.519	c0.949,0.79,2.13,1.31,3.44,1.39C9.72,52,9.86,52,10,52h18c2.76,0,5.002-2.243,5.003-5.006c0-0.16-0.007-0.321-0.023-0.484	C32.73,43.91,30.4,42,27.79,42H15C13.34,42,12,40.66,12,39"/></svg>