<svg xmlns="http://www.w3.org/2000/svg" width="64" height="64" viewBox="0 0 128 128"><path fill="#fff" d="M107.7,104c-2.7-20.9-9.4-38.8-18.6-50.5c-2.2-2.8-5.7-4.2-9.3-3.7l-4.3,0.6c-7.6,1.1-15.4,1.1-23,0l-4.3-0.6 c-3.5-0.5-7.1,0.9-9.3,3.7C29.7,65.2,22.9,83.1,20.3,104H9l10,20h90l10-20H107.7z"/><path fill="#71c2ff" d="M109,124c0-29.4-7.9-55.2-19.9-70.5c-2.2-2.8-5.7-4.2-9.3-3.7l-4.3,0.6c-3.8,0.5-7.7,0.8-11.5,0.8V124H109z"/><path fill="#fff" d="M106.1,97H63.9c-1.7,0-3-1.3-3-3s1.3-3,3-3h42.2c1.7,0,3,1.3,3,3S107.8,97,106.1,97z"/><path fill="#444b54" d="M110.6,69.5c-1.6-0.4-3.2,0.6-3.6,2.2c-0.6,2.5-1.2,5.1-1.6,7.7C102,68.5,97.2,59,91.5,51.6 c-2.9-3.6-7.5-5.5-12.1-4.8l-4.3,0.6c-7.4,1-14.8,1-22.2,0l-4.3-0.6c-4.6-0.7-9.2,1.2-12.1,4.8c-8.1,10.3-14.2,24.8-17.6,41.8 c-0.3,1.6,0.7,3.2,2.4,3.5c1.6,0.3,3.2-0.7,3.5-2.4c3.2-15.9,9-29.8,16.4-39.2c1.5-2,4-3,6.5-2.6l4.3,0.6c7.9,1.1,16,1.1,23.9,0 l4.3-0.6c2.5-0.3,5,0.7,6.5,2.6C98.4,70.1,105.5,94.5,106,121c0,0,6,4.7,6,3c0-6.9-0.4-13.7-1.3-20.2c0,0,0-0.1,0-0.1 c-1.1-10.3-0.4-20.5,2.1-30.6C113.2,71.5,112.2,69.9,110.6,69.5z"/><path fill="#71c2ff" d="M109,124H64c-5.5,0-10-4.5-10-10v0c0-5.5,4.5-10,10-10h55L109,124z"/><path fill="#444b54" d="M109,127H19c-1.1,0-2.2-0.6-2.7-1.7l-10-20c-0.5-0.9-0.4-2,0.1-2.9S8,101,9,101h110c1,0,2,0.5,2.6,1.4 s0.6,2,0.1,2.9l-10,20C111.2,126.4,110.1,127,109,127z M20.9,121h86.3l7-14H13.9L20.9,121z"/><path fill="#444b54" d="M116.1,55.9c-0.7-0.7-1.7-1-2.7-0.8c-0.2,0-0.4,0.1-0.6,0.2c-0.2,0.1-0.3,0.2-0.5,0.3 c-0.2,0.1-0.3,0.2-0.5,0.4s-0.3,0.3-0.4,0.5c-0.1,0.2-0.2,0.3-0.3,0.5c-0.1,0.2-0.1,0.4-0.2,0.6c0,0.2-0.1,0.4-0.1,0.6 c0,0.2,0,0.4,0.1,0.6c0,0.2,0.1,0.4,0.2,0.6c0.1,0.2,0.2,0.4,0.3,0.5c0.1,0.2,0.2,0.3,0.4,0.4c0.6,0.6,1.3,0.9,2.1,0.9 s1.6-0.3,2.1-0.9c0.1-0.1,0.3-0.3,0.4-0.4c0.1-0.2,0.2-0.3,0.3-0.5c0.1-0.2,0.1-0.4,0.2-0.6c0-0.2,0.1-0.4,0.1-0.6 C117,57.2,116.7,56.4,116.1,55.9z"/></svg>