<svg xmlns="http://www.w3.org/2000/svg" width="64" height="64" viewBox="0 0 64 64"><g data-name="Color copy"><circle cx="34.993" cy="34.999" r="26" fill="#4891d3"/><path fill="#2d72bc" d="M50.74,55.69A26,26,0,1,1,30.32,9.42,26,26,0,0,0,50.74,55.69Z"/><path fill="#f9e109" d="M44.2,32.924l-2.405-8.259,6.419-6.228,7.229.507A25.993,25.993,0,0,1,29.912,60.492l2.2-2.133-2.5-1.935.426-7.268,5.711-1.179,4.436-.565,2.6-4.389L44.1,39.248l-2.5-1.935Z"/><path fill="#f9e109" d="M10.455,26.405A25.992,25.992,0,0,1,34.4,9l4.088,3.91L34.993,20l.491,10.233-6.153,2.784-4.389-2.6L23.62,34.2l2.5,1.935-2.927,5.332-5.663-1.983-5.1,2.453-2.69-.73A25.851,25.851,0,0,1,10.455,26.405Z"/><path fill="#fcbc04" d="M14.585,51.1l5.021-2.416.9,3.492,3.445,2.266-.737,3.737A25.647,25.647,0,0,1,14.585,51.1Z"/><path fill="#fcbc04" d="M50.74,55.69a25.987,25.987,0,0,1-20.83,4.8l2.2-2.13-2.5-1.94.35-5.89a26.047,26.047,0,0,0,20.78,5.16Z"/><path fill="#fcbc04" d="M21.53,21.52a25.862,25.862,0,0,0,1.04,19.72l-5.04-1.76-5.1,2.45L9.74,41.2A25.993,25.993,0,0,1,30.31,9.43,25.882,25.882,0,0,0,21.53,21.52Z"/><path fill="#84d2f4" d="M3,6V27a3,3,0,0,0,3,3h9l6,6V30h7a3,3,0,0,0,3-3V6a3,3,0,0,0-3-3H6A3,3,0,0,0,3,6Z"/><path fill="#57b7eb" d="M31,24v3a3,3,0,0,1-3,3H21v6l-6-6H6a3,3,0,0,1-3-3V6A3,3,0,0,1,6,3H9v7A14,14,0,0,0,23,24Z"/><path fill="#f9e109" d="M12.553,15.9a1,1,0,0,0,1.342-.448L15.118,13h3.764l1.223,2.447a1,1,0,0,0,1.79-.894l-4-8a1.042,1.042,0,0,0-1.79,0l-4,8A1,1,0,0,0,12.553,15.9ZM17,9.236,17.882,11H16.118Z"/><path fill="#fcbc04" d="M12,20H11V19a1,1,0,0,0-2,0v6a1,1,0,0,0,1,1h2a3,3,0,0,0,0-6Zm0,4H11V22h1a1,1,0,0,1,0,2Z"/><path fill="#f9e109" d="M22.612,21.165a.6.6,0,0,1,.524.309,1,1,0,0,0,1.728-1.006A2.607,2.607,0,0,0,20,21.776v1.613A2.607,2.607,0,0,0,24.864,24.7a1,1,0,0,0-1.728-1.006.6.6,0,0,1-.524.309A.612.612,0,0,1,22,23.389V21.776A.612.612,0,0,1,22.612,21.165Z"/><path fill="#fcbc04" d="M24.86,24.7a2.609,2.609,0,0,1-4.85-1.02,14.382,14.382,0,0,0,2.47.31h.01a.487.487,0,0,0,.12.01.17.17,0,0,0,.07-.01c.11.01.21.01.32.01h1.98A1.025,1.025,0,0,1,24.86,24.7Z"/><path fill="#f8664f" d="M34,28V49a3,3,0,0,0,3,3h4v4l6-4H58a3,3,0,0,0,3-3V28a3,3,0,0,0-3-3H37A3,3,0,0,0,34,28Z"/><path fill="#cc5144" d="M61,45v4a3,3,0,0,1-3,3H47l-6,4V52H37a3,3,0,0,1-3-3V28a3,3,0,0,1,3-3h3v6A14,14,0,0,0,54,45Z"/><path fill="#84d2f4" d="M43.945,43.168l-1.445.964V38a1,1,0,0,0-1-1h-3a1,1,0,0,0,0,2h2v7a1,1,0,0,0,1.555.832l3-2a1,1,0,1,0-1.11-1.664Z"/><path fill="#84d2f4" d="M40.793,35.707a1,1,0,0,0,1.414-1.414l-2-2a1,1,0,0,0-1.414,1.414Z"/><path fill="#84d2f4" d="M55.5,37h-1V33a1,1,0,0,0-1-1H51.133l.25-2H55.5a1,1,0,0,0,0-2h-9a1,1,0,0,0,0,2h2.867l-.25,2H46.5a1,1,0,0,0,0,2h2.367l-.359,2.876a.852.852,0,0,0,.009.124H46.5a1,1,0,0,0,0,2h9a1,1,0,0,0,0-2Zm-4.617-3H52.5v3H50.508Z"/><path fill="#84d2f4" d="M55.5,41h-8a1,1,0,0,0-1,1v6a1,1,0,0,0,2,0V47h6v1a1,1,0,0,0,2,0V42A1,1,0,0,0,55.5,41Zm-7,4V43h6v2Z"/><path fill="#57b7eb" d="M45.05,44.83l-3,2A1,1,0,0,1,40.5,46V39h-2a1,1,0,0,1,0-2h2.85a13.976,13.976,0,0,0,1.15,1.98v5.15l1.45-.96a1,1,0,0,1,1.1,1.66Z"/><path fill="#57b7eb" d="M40.83,35.74c-.01-.01-.03-.02-.04-.03l-2-2a1.008,1.008,0,0,1,0-1.42,1.03,1.03,0,0,1,1.26-.14v.01A13.685,13.685,0,0,0,40.83,35.74Z"/><path fill="#57b7eb" d="M48.5,45V43.87a14.07,14.07,0,0,1-2-1.05V48a1,1,0,0,0,2,0V47h6v1a1,1,0,0,0,2,0V45Z"/></g></svg>